<?xml version="1.0" standalone="no"?><!DOCTYPE svg PUBLIC "-//W3C//DTD SVG 1.1//EN" "http://www.w3.org/Graphics/SVG/1.1/DTD/svg11.dtd"><svg t="1554345102213" class="icon" style="" viewBox="0 0 1024 1024" version="1.1" xmlns="http://www.w3.org/2000/svg" p-id="3655" xmlns:xlink="http://www.w3.org/1999/xlink" width="128" height="128"><defs><style type="text/css"></style></defs><path d="M578.176 490.026667a99.285333 99.285333 0 0 0-99.328 99.498666c0 56.064 43.221333 98.688 104.149333 98.688l-0.512 0.085334c50.858667 0 93.568-41.941333 93.568-97.28 0.042667-57.557333-42.709333-100.992-97.877333-100.992z" p-id="3656"></path><path d="M128 128v768h768V128H128z m662.186667 665.813333h-114.432v-45.141333c-35.2 34.56-71.125333 47.061333-118.869334 47.061333-48.725333 0-90.624-15.829333-125.738666-47.530666-46.336-40.789333-70.314667-95.018667-70.314667-157.909334 0-57.642667 22.357333-109.269333 64.298667-149.589333 37.461333-36.650667 83.029333-55.381333 133.930666-55.381333 48.64 0 86.101333 16.426667 112.938667 50.858666V261.034667l118.186667-24.490667v-0.085333l0.085333 0.128h-0.085333v557.226666z" p-id="3657"></path></svg>