<?xml version="1.0" standalone="no"?><!DOCTYPE svg PUBLIC "-//W3C//DTD SVG 1.1//EN" "http://www.w3.org/Graphics/SVG/1.1/DTD/svg11.dtd"><svg t="1553996686184" class="icon" style="" viewBox="0 0 1024 1024" version="1.1" xmlns="http://www.w3.org/2000/svg" p-id="2319" xmlns:xlink="http://www.w3.org/1999/xlink" width="128" height="128"><defs><style type="text/css"></style></defs><path d="M920.425202 815.372407l-3.623993-1.031998c-52.937897-14.217972-70.843862-27.875946-94.435815-36.843928-57.249888-21.811957-85.499833-39.499923-99.405806-51.937898l-12.249976-47.687907-0.282-39.531923c44.717913-59.843883 76.68785-134.557737 76.687851-211.933586 0-14.561972-0.843998-28.687944-2.437996-42.405917h47.311908c11.779977 0 21.309958-9.545981 21.309958-21.327958s-9.531981-21.343958-21.309958-21.343959h-21.311958c0-127.357751-79.749844-236.075539-191.997625-279.011455v-19.639961c0-8.109984-4.623991-15.51597-11.875977-19.109963-1.937996-0.967998-47.967906-23.561954-94.811815-23.561954s-92.889819 22.593956-94.827815 23.561954a21.345958 21.345958 0 0 0-11.843977 19.109963l0.016 19.639961c-112.263781 42.935916-192.013625 151.653704-192.013625 279.011455H191.994625c-11.779977 0-21.327958 9.561981-21.327958 21.343959S180.214648 384.00125 191.994625 384.00125h47.311908a367.039283 367.039283 0 0 0-2.421996 42.405917c0 77.375849 31.953938 152.089703 76.671851 211.933586l-0.282 39.531923-12.249976 47.687907c-13.889973 12.437976-42.123918 30.123941-99.421806 51.937898-23.577954 8.967982-41.483919 22.623956-94.419815 36.843928l-3.623993 1.031998c-48.185906 15.937969-80.607843 60.623882-80.607843 111.061784v97.561809H1001.049045v-97.561809c0-50.439901-32.435937-95.127814-80.623843-111.063784z m-239.557532-82.187839l-47.061908 86.749831-71.061861-60.875882c34.749932-13.437974 72.061859-38.905924 106.061793-72.749857l12.061976 46.875908z m-325.701364-46.875908c34.031934 33.843934 71.343861 59.311884 106.091793 72.749857l-71.091861 60.875882-47.045908-86.749831 12.045976-46.875908z m156.825694 85.437833l36.843928 31.561938-9.545981 28.687944h-54.593894l-9.545981-28.687944 36.841928-31.561938zM330.978354 160.315687c21.889957-21.889957 47.045908-39.295923 74.375854-51.827899l0.016 83.609837c0.016 11.781977 9.561981 21.327958 21.343959 21.327958 11.781977-0.016 21.327958-9.561981 21.327958-21.343958l-0.046-135.451736c15.639969-6.123988 40.90592-13.953973 63.999875-13.953972 24.343952 0 49.623903 8.343984 63.999875 13.999972v132.653741c0 11.781977 9.561981 21.343958 21.311958 21.343959 11.811977 0 21.375958-9.561981 21.375959-21.343959V108.503788c27.311947 12.515976 52.437898 29.937942 74.311854 51.811899 48.373906 48.359906 74.997854 112.63978 74.997854 181.013646h-511.999c0-68.371866 26.625948-132.653741 74.983854-181.013646zM282.306449 384.00125h459.371102a324.319367 324.319367 0 0 1 2.749995 42.405917c0 70.265863-31.967938 146.999713-87.685829 210.527589-24.499952 27.875946-51.937899 51.2499-79.375845 67.531868-24.467952 14.531972-47.687907 22.531956-65.375872 22.531956s-40.90592-7.999984-65.373872-22.531956c-27.437946-16.281968-54.875893-39.655923-79.375845-67.531868-55.717891-63.527876-87.685829-140.261726-87.685829-210.527589 0.002-14.515972 0.939998-28.655944 2.751995-42.405917zM65.604872 981.308083v-54.875892c0-31.811938 20.32796-59.967883 50.655901-70.311863l2.389995-0.687999c39.889922-10.749979 61.921879-21.281958 79.623845-29.749942 6.843987-3.311994 12.765975-6.123988 18.515964-8.311983 30.65594-11.687977 68.749866-27.717946 97.405809-47.999907l51.045901 94.123816c3.061994 5.687989 8.531983 9.623981 14.875971 10.811979 1.281997 0.25 2.577995 0.375999 3.875992 0.376 5.04599 0 9.983981-1.811996 13.875973-5.15599l42.295917-36.21793 7.327986 21.999957-17.999965 125.999754H65.604872z m446.387128 0h-39.405923l15.24997-106.623791h48.311906l15.24997 106.623791h-39.405923z m446.371128 0H594.491839l-17.999965-125.999754 7.311986-21.999957 42.311917 36.21793a21.249958 21.249958 0 0 0 13.875973 5.15599c1.311997 0 2.593995-0.124 3.875992-0.376 6.343988-1.187998 11.811977-5.12399 14.875971-10.811979l51.059901-94.123816c28.655944 20.31196 66.74987 36.311929 97.437809 47.999907 5.687989 2.187996 11.623977 4.99999 18.467964 8.311983 17.715965 8.467983 39.715922 18.999963 79.623845 29.749942l2.405995 0.687999c30.311941 10.34398 50.623901 38.499925 50.623901 70.311863v54.875892z" p-id="2320"></path></svg>