<?xml version="1.0" standalone="no"?><!DOCTYPE svg PUBLIC "-//W3C//DTD SVG 1.1//EN" "http://www.w3.org/Graphics/SVG/1.1/DTD/svg11.dtd"><svg t="1543219136070" class="icon" style="" viewBox="0 0 1024 1024" version="1.1" xmlns="http://www.w3.org/2000/svg" p-id="6177" xmlns:xlink="http://www.w3.org/1999/xlink" width="200" height="200"><defs><style type="text/css"></style></defs><path d="M839.68 102.4c0-11.264-9.216-20.48-20.48-20.48-3.584 0-6.656 1.024-9.216 2.56-3.584-1.024-7.168-1.536-11.264-1.536H225.28c-4.096 0-7.68 0.512-11.264 1.536-2.56-1.536-5.632-2.56-9.216-2.56-11.264 0-20.48 9.216-20.48 20.48 0 5.12 0 10.752 0.512 15.872 0 1.536-0.512 3.584-0.512 5.632V901.12c0 22.528 18.432 40.96 40.96 40.96h573.44c22.528 0 40.96-18.432 40.96-40.96V123.392c0-2.048 0-3.584-0.512-5.632 0.512-4.608 0.512-10.24 0.512-15.36z m-41.984 20.992C786.944 271.36 663.04 388.608 512 388.608S237.056 271.872 226.304 123.392h571.392zM225.28 901.12V260.608c55.808 100.864 163.328 168.96 286.72 168.96s230.912-68.608 286.72-168.96V901.12H225.28z" p-id="6178"></path><path d="M595.968 550.4l-51.712 95.744c-2.048 3.584 0.512 7.68 4.608 7.68h52.736c7.68 0 13.824 6.144 13.824 13.824 0 7.68-6.144 13.824-13.824 13.824h-65.536c-3.072 0-5.12 2.048-5.12 5.12v33.792h75.776c7.68 0 13.824 6.144 13.824 13.824 0 7.68-6.144 13.824-13.824 13.824h-70.656c-3.072 0-5.12 2.048-5.12 5.12v53.76c0 9.728-7.68 17.408-17.408 17.408s-17.408-7.68-17.408-17.408v-53.76c0-3.072-2.048-5.12-5.12-5.12H417.792c-7.68 0-13.824-6.144-13.824-13.824 0-7.68 6.144-13.824 13.824-13.824h77.824v-33.792c0-3.072-2.048-5.12-5.12-5.12H422.912c-7.68 0-13.824-6.144-13.824-13.824 0-7.68 6.144-13.824 13.824-13.824h53.76c4.096 0 6.144-4.096 4.608-7.68l-51.2-95.744c-5.632-10.752 2.048-24.064 14.336-24.064h2.56c6.144 0 11.776 3.584 14.848 9.216l43.008 90.112c2.56 5.632 5.632 12.288 9.216 20.992h0.512c2.56-6.656 5.632-14.336 9.216-22.016l43.52-89.088c2.56-5.632 8.192-9.216 14.848-9.216 11.776 0 19.968 13.312 13.824 24.064z" p-id="6179"></path></svg>