<?xml version="1.0" standalone="no"?><!DOCTYPE svg PUBLIC "-//W3C//DTD SVG 1.1//EN" "http://www.w3.org/Graphics/SVG/1.1/DTD/svg11.dtd"><svg t="1541483593367" class="icon" style="" viewBox="0 0 1024 1024" version="1.1" xmlns="http://www.w3.org/2000/svg" p-id="8937" xmlns:xlink="http://www.w3.org/1999/xlink" width="200" height="200"><defs><style type="text/css"></style></defs><path d="M512 0C229.229714 0 0 229.229714 0 512s229.229714 512 512 512 512-229.229714 512-512S794.770286 0 512 0z m-38.085486 760.429714a21.942857 21.942857 0 0 1-21.942857 21.942857H263.431314a21.942857 21.942857 0 0 1-21.942857-21.942857V571.896686a21.942857 21.942857 0 0 1 21.942857-21.942857h188.540343a21.942857 21.942857 0 0 1 21.942857 21.942857z m0-301.6704a21.942857 21.942857 0 0 1-21.942857 21.942857H263.431314a21.942857 21.942857 0 0 1-21.942857-21.942857V270.226286a21.942857 21.942857 0 0 1 21.942857-21.942857h188.540343a21.942857 21.942857 0 0 1 21.942857 21.942857z m301.941029 301.6704a21.942857 21.942857 0 0 1-21.942857 21.942857H565.394286a21.942857 21.942857 0 0 1-21.942857-21.942857V571.896686a21.942857 21.942857 0 0 1 21.942857-21.942857h188.540343a21.942857 21.942857 0 0 1 21.942857 21.942857z m0.226743-380.423314l-100.937143 100.937143a21.942857 21.942857 0 0 1-31.034514 0l-100.937143-100.937143a21.942857 21.942857 0 0 1 0-31.0272l100.937143-100.937143a21.942857 21.942857 0 0 1 31.034514 0l100.937143 100.937143a21.942857 21.942857 0 0 1 0 31.0272z" fill="#3D3D3D" p-id="8938"></path><path d="M241.488457 248.283429l232.426057 0 0 232.426057-232.426057 0 0-232.426057Z" fill="#667EB5" p-id="8939"></path><path d="M675.159771 248.056686a21.942857 21.942857 0 0 0-31.034514 0l-100.937143 100.937143a21.942857 21.942857 0 0 0 0 31.0272l100.937143 100.937142a21.942857 21.942857 0 0 0 31.034514 0l100.937143-100.937142a21.942857 21.942857 0 0 0 0-31.0272z" fill="#FFFFFF" p-id="8940"></path><path d="M241.488457 549.953829l232.426057 0 0 232.426057-232.426057 0 0-232.426057Z" fill="#5B6DA5" p-id="8941"></path><path d="M543.429486 549.953829l232.426057 0 0 232.426057-232.426057 0 0-232.426057Z" fill="#6F87BC" p-id="8942"></path></svg>