<?xml version="1.0" standalone="no"?><!DOCTYPE svg PUBLIC "-//W3C//DTD SVG 1.1//EN" "http://www.w3.org/Graphics/SVG/1.1/DTD/svg11.dtd"><svg t="1553996641502" class="icon" style="" viewBox="0 0 1024 1024" version="1.1" xmlns="http://www.w3.org/2000/svg" p-id="1830" xmlns:xlink="http://www.w3.org/1999/xlink" width="128" height="128"><defs><style type="text/css"></style></defs><path d="M298.666667 216.96h426.666666v85.333333h85.333334v-170.666666c0-47.146667-38.186667-84.906667-85.333334-84.906667l-426.666666-0.426667c-47.146667 0-85.333333 38.186667-85.333334 85.333334v170.666666h85.333334v-85.333333z m359.04 494.293333L853.333333 515.626667 657.706667 320 597.333333 380.373333l135.253334 135.253334L597.333333 651.093333l60.373334 60.16zM426.666667 651.093333l-135.253334-135.253333L426.666667 380.373333 366.293333 320 170.666667 515.626667l195.626666 195.626666L426.666667 651.093333z m298.666666 163.2H298.666667v-85.333333h-85.333334v170.666667c0 47.146667 38.186667 85.333333 85.333334 85.333333h426.666666c47.146667 0 85.333333-38.186667 85.333334-85.333333v-170.666667h-85.333334v85.333333z" p-id="1831"></path></svg>