<?xml version="1.0" standalone="no"?><!DOCTYPE svg PUBLIC "-//W3C//DTD SVG 1.1//EN" "http://www.w3.org/Graphics/SVG/1.1/DTD/svg11.dtd"><svg t="1541988465126" class="icon" style="" viewBox="0 0 1024 1024" version="1.1" xmlns="http://www.w3.org/2000/svg" p-id="9454" xmlns:xlink="http://www.w3.org/1999/xlink" width="200" height="200"><defs><style type="text/css"></style></defs><path d="M896.664382 382.482181 896.664382 893.597021 127.833969 893.597021 127.833969 127.962393 639.487068 127.83448 639.487068 63.877843 64.133158 63.877843 64.133158 958.063265 958.059684 958.063265 958.059684 382.482181Z" p-id="9455"></path><path d="M210.070948 809.558l204.637704-22.527063 542.826076-542.705326L776.637728 63.422472 233.901703 606.106308 210.070948 809.558zM269.177114 751.847623l10.190083-100.69947 0.013303-0.013303 90.443895 90.443895-0.239454 0.239454L269.177114 751.847623zM320.621786 609.891518l375.74371-375.766223 90.460268 90.459245-375.758036 375.75292L320.621786 609.891518zM867.100042 244.311285l-39.032992 39.031968-90.461291-90.461291 39.031968-39.034015L867.100042 244.311285z" p-id="9456"></path></svg>